<svg width="167" height="25" viewBox="0 0 167 25" fill="none" xmlns="http://www.w3.org/2000/svg">
<path d="M12.96 19L11.136 14.056H4.512L2.688 19H0L6.504 1.792H9.192L15.672 19H12.96ZM8.688 6.976C8.64 6.8 8.552 6.536 8.424 6.184C8.312 5.816 8.2 5.448 8.088 5.08C7.976 4.696 7.888 4.384 7.824 4.144C7.744 4.464 7.648 4.816 7.536 5.2C7.44 5.568 7.344 5.912 7.248 6.232C7.152 6.536 7.072 6.784 7.008 6.976L5.28 11.8H10.416L8.688 6.976ZM24.1511 5.824C25.7031 5.824 26.9511 6.384 27.8951 7.504C28.8551 8.624 29.3351 10.296 29.3351 12.52C29.3351 13.976 29.1191 15.208 28.6871 16.216C28.2551 17.224 27.6471 17.984 26.8631 18.496C26.0791 18.992 25.1671 19.24 24.1271 19.24C23.4711 19.24 22.8951 19.16 22.3991 19C21.9031 18.824 21.4791 18.6 21.1271 18.328C20.7911 18.04 20.4951 17.736 20.2391 17.416H20.0711C20.1191 17.704 20.1591 18.048 20.1911 18.448C20.2231 18.832 20.2391 19.176 20.2391 19.48V24.76H17.6951V6.064H19.7591L20.1191 7.792H20.2391C20.4951 7.44 20.7991 7.112 21.1511 6.808C21.5031 6.504 21.9271 6.264 22.4231 6.088C22.9191 5.912 23.4951 5.824 24.1511 5.824ZM23.5511 7.912C22.7511 7.912 22.1111 8.072 21.6311 8.392C21.1511 8.696 20.7991 9.16 20.5751 9.784C20.3671 10.392 20.2551 11.168 20.2391 12.112V12.496C20.2391 13.488 20.3431 14.336 20.5511 15.04C20.7591 15.728 21.1031 16.256 21.5831 16.624C22.0791 16.976 22.7511 17.152 23.5991 17.152C24.3191 17.152 24.9031 16.96 25.3511 16.576C25.8151 16.176 26.1591 15.624 26.3831 14.92C26.6071 14.216 26.7191 13.4 26.7191 12.472C26.7191 11.064 26.4631 9.952 25.9511 9.136C25.4391 8.32 24.6391 7.912 23.5511 7.912ZM39.0339 5.824C40.5859 5.824 41.8339 6.384 42.7779 7.504C43.7379 8.624 44.2179 10.296 44.2179 12.52C44.2179 13.976 44.0019 15.208 43.5699 16.216C43.1379 17.224 42.5299 17.984 41.7459 18.496C40.9619 18.992 40.0499 19.24 39.0099 19.24C38.3539 19.24 37.7779 19.16 37.2819 19C36.7859 18.824 36.3619 18.6 36.0099 18.328C35.6739 18.04 35.3779 17.736 35.1219 17.416H34.9539C35.0019 17.704 35.0419 18.048 35.0739 18.448C35.1059 18.832 35.1219 19.176 35.1219 19.48V24.76H32.5779V6.064H34.6419L35.0019 7.792H35.1219C35.3779 7.44 35.6819 7.112 36.0339 6.808C36.3859 6.504 36.8099 6.264 37.3059 6.088C37.8019 5.912 38.3779 5.824 39.0339 5.824ZM38.4339 7.912C37.6339 7.912 36.9939 8.072 36.5139 8.392C36.0339 8.696 35.6819 9.16 35.4579 9.784C35.2499 10.392 35.1379 11.168 35.1219 12.112V12.496C35.1219 13.488 35.2259 14.336 35.4339 15.04C35.6419 15.728 35.9859 16.256 36.4659 16.624C36.9619 16.976 37.6339 17.152 38.4819 17.152C39.2019 17.152 39.7859 16.96 40.2339 16.576C40.6979 16.176 41.0419 15.624 41.2659 14.92C41.4899 14.216 41.6019 13.4 41.6019 12.472C41.6019 11.064 41.3459 9.952 40.8339 9.136C40.3219 8.32 39.5219 7.912 38.4339 7.912ZM62.2871 15.352C62.2871 16.2 62.0791 16.912 61.6631 17.488C61.2471 18.064 60.6471 18.504 59.8631 18.808C59.0791 19.096 58.1351 19.24 57.0311 19.24C56.1191 19.24 55.3351 19.168 54.6791 19.024C54.0391 18.896 53.4471 18.704 52.9031 18.448V16.216C53.4791 16.488 54.1431 16.736 54.8951 16.96C55.6471 17.168 56.3831 17.272 57.1031 17.272C58.0631 17.272 58.7511 17.12 59.1671 16.816C59.5991 16.512 59.8151 16.104 59.8151 15.592C59.8151 15.304 59.7351 15.048 59.5751 14.824C59.4151 14.584 59.1111 14.344 58.6631 14.104C58.2311 13.848 57.5911 13.56 56.7431 13.24C55.9271 12.904 55.2311 12.576 54.6551 12.256C54.0791 11.92 53.6391 11.528 53.3351 11.08C53.0311 10.616 52.8791 10.024 52.8791 9.304C52.8791 8.184 53.3271 7.328 54.2231 6.736C55.1351 6.128 56.3351 5.824 57.8231 5.824C58.6071 5.824 59.3431 5.904 60.0311 6.064C60.7351 6.208 61.4151 6.432 62.0711 6.736L61.2311 8.68C60.8631 8.504 60.4791 8.36 60.0791 8.248C59.6951 8.12 59.3031 8.016 58.9031 7.936C58.5191 7.856 58.1191 7.816 57.7031 7.816C56.9351 7.816 56.3511 7.936 55.9511 8.176C55.5511 8.416 55.3511 8.752 55.3511 9.184C55.3511 9.488 55.4391 9.752 55.6151 9.976C55.8071 10.2 56.1351 10.424 56.5991 10.648C57.0631 10.872 57.6951 11.144 58.4951 11.464C59.2951 11.768 59.9751 12.08 60.5351 12.4C61.1111 12.72 61.5431 13.112 61.8311 13.576C62.1351 14.04 62.2871 14.632 62.2871 15.352ZM69.9761 17.176C70.3121 17.176 70.6561 17.144 71.0081 17.08C71.3601 17.016 71.6641 16.944 71.9201 16.864V18.784C71.6481 18.912 71.2801 19.016 70.8161 19.096C70.3521 19.192 69.8881 19.24 69.4241 19.24C68.7201 19.24 68.0721 19.12 67.4801 18.88C66.9041 18.64 66.4401 18.224 66.0881 17.632C65.7361 17.04 65.5601 16.216 65.5601 15.16V8.008H63.7601V6.856L65.6561 5.896L66.5441 3.16H68.1041V6.064H71.8001V8.008H68.1041V15.112C68.1041 15.816 68.2721 16.336 68.6081 16.672C68.9601 17.008 69.4161 17.176 69.9761 17.176ZM85.9076 12.52C85.9076 13.592 85.7636 14.544 85.4756 15.376C85.1876 16.208 84.7796 16.912 84.2516 17.488C83.7236 18.064 83.0836 18.504 82.3316 18.808C81.5796 19.096 80.7316 19.24 79.7876 19.24C78.9236 19.24 78.1236 19.096 77.3876 18.808C76.6516 18.504 76.0116 18.064 75.4676 17.488C74.9396 16.912 74.5236 16.208 74.2196 15.376C73.9156 14.544 73.7636 13.584 73.7636 12.496C73.7636 11.072 74.0036 9.864 74.4836 8.872C74.9796 7.88 75.6836 7.128 76.5956 6.616C77.5236 6.088 78.6116 5.824 79.8596 5.824C81.0436 5.824 82.0836 6.088 82.9796 6.616C83.8916 7.128 84.6036 7.88 85.1156 8.872C85.6436 9.864 85.9076 11.08 85.9076 12.52ZM76.3796 12.52C76.3796 13.48 76.4996 14.312 76.7396 15.016C76.9796 15.704 77.3556 16.232 77.8676 16.6C78.3796 16.968 79.0356 17.152 79.8356 17.152C80.6356 17.152 81.2916 16.968 81.8036 16.6C82.3156 16.232 82.6916 15.704 82.9316 15.016C83.1716 14.312 83.2916 13.48 83.2916 12.52C83.2916 11.528 83.1636 10.696 82.9076 10.024C82.6676 9.352 82.2916 8.84 81.7796 8.488C81.2836 8.12 80.6276 7.936 79.8116 7.936C78.6116 7.936 77.7396 8.336 77.1956 9.136C76.6516 9.936 76.3796 11.064 76.3796 12.52ZM95.5166 5.824C95.7406 5.824 95.9886 5.84 96.2606 5.872C96.5326 5.888 96.7566 5.912 96.9326 5.944L96.6686 8.32C96.4926 8.272 96.2846 8.232 96.0446 8.2C95.8046 8.168 95.5806 8.152 95.3726 8.152C94.8926 8.152 94.4286 8.248 93.9806 8.44C93.5486 8.616 93.1566 8.88 92.8046 9.232C92.4526 9.568 92.1726 9.984 91.9646 10.48C91.7726 10.976 91.6766 11.544 91.6766 12.184V19H89.1326V6.064H91.1486L91.4846 8.368H91.5806C91.8526 7.904 92.1806 7.48 92.5646 7.096C92.9486 6.712 93.3886 6.408 93.8846 6.184C94.3806 5.944 94.9246 5.824 95.5166 5.824ZM103.947 5.824C105.083 5.824 106.059 6.064 106.875 6.544C107.691 7.008 108.315 7.68 108.747 8.56C109.195 9.44 109.419 10.48 109.419 11.68V13.072H100.731C100.763 14.4 101.107 15.416 101.763 16.12C102.435 16.824 103.371 17.176 104.571 17.176C105.403 17.176 106.139 17.104 106.779 16.96C107.435 16.8 108.107 16.568 108.795 16.264V18.376C108.155 18.664 107.499 18.88 106.827 19.024C106.171 19.168 105.387 19.24 104.475 19.24C103.227 19.24 102.123 18.992 101.163 18.496C100.203 18 99.4512 17.264 98.9072 16.288C98.3792 15.296 98.1152 14.08 98.1152 12.64C98.1152 11.184 98.3552 9.952 98.8352 8.944C99.3312 7.936 100.011 7.168 100.875 6.64C101.755 6.096 102.779 5.824 103.947 5.824ZM103.947 7.792C103.035 7.792 102.299 8.088 101.739 8.68C101.195 9.272 100.875 10.112 100.779 11.2H106.875C106.875 10.528 106.771 9.936 106.563 9.424C106.355 8.912 106.035 8.512 105.603 8.224C105.171 7.936 104.619 7.792 103.947 7.792ZM121.372 19H118.828V0.759999H121.372V19ZM136.767 12.52C136.767 13.592 136.623 14.544 136.335 15.376C136.047 16.208 135.639 16.912 135.111 17.488C134.583 18.064 133.943 18.504 133.191 18.808C132.439 19.096 131.591 19.24 130.647 19.24C129.783 19.24 128.983 19.096 128.247 18.808C127.511 18.504 126.871 18.064 126.327 17.488C125.799 16.912 125.383 16.208 125.079 15.376C124.775 14.544 124.623 13.584 124.623 12.496C124.623 11.072 124.863 9.864 125.343 8.872C125.839 7.88 126.543 7.128 127.455 6.616C128.383 6.088 129.471 5.824 130.719 5.824C131.903 5.824 132.943 6.088 133.839 6.616C134.751 7.128 135.463 7.88 135.975 8.872C136.503 9.864 136.767 11.08 136.767 12.52ZM127.239 12.52C127.239 13.48 127.359 14.312 127.599 15.016C127.839 15.704 128.215 16.232 128.727 16.6C129.239 16.968 129.895 17.152 130.695 17.152C131.495 17.152 132.151 16.968 132.663 16.6C133.175 16.232 133.551 15.704 133.791 15.016C134.031 14.312 134.151 13.48 134.151 12.52C134.151 11.528 134.023 10.696 133.767 10.024C133.527 9.352 133.151 8.84 132.639 8.488C132.143 8.12 131.487 7.936 130.671 7.936C129.471 7.936 128.599 8.336 128.055 9.136C127.511 9.936 127.239 11.064 127.239 12.52ZM144.456 5.824C145.288 5.824 146.04 5.984 146.712 6.304C147.384 6.624 147.952 7.112 148.416 7.768H148.536L148.824 6.064H150.888V19.168C150.888 20.384 150.672 21.408 150.24 22.24C149.808 23.072 149.144 23.696 148.248 24.112C147.368 24.544 146.256 24.76 144.912 24.76C143.984 24.76 143.128 24.696 142.344 24.568C141.56 24.44 140.84 24.24 140.184 23.968V21.736C140.648 21.96 141.136 22.144 141.648 22.288C142.16 22.448 142.704 22.56 143.28 22.624C143.856 22.704 144.448 22.744 145.056 22.744C146.112 22.744 146.928 22.44 147.504 21.832C148.08 21.24 148.368 20.4 148.368 19.312V18.88C148.368 18.672 148.376 18.4 148.392 18.064C148.408 17.712 148.424 17.456 148.44 17.296H148.344C147.896 17.968 147.344 18.464 146.688 18.784C146.048 19.088 145.304 19.24 144.456 19.24C142.824 19.24 141.544 18.656 140.616 17.488C139.704 16.304 139.248 14.664 139.248 12.568C139.248 11.16 139.456 9.96 139.872 8.968C140.288 7.96 140.88 7.184 141.648 6.64C142.432 6.096 143.368 5.824 144.456 5.824ZM144.984 7.936C144.312 7.936 143.744 8.12 143.28 8.488C142.816 8.84 142.464 9.36 142.224 10.048C141.984 10.736 141.864 11.584 141.864 12.592C141.864 14.096 142.128 15.24 142.656 16.024C143.2 16.808 143.992 17.2 145.032 17.2C145.64 17.2 146.152 17.12 146.568 16.96C147 16.8 147.352 16.552 147.624 16.216C147.912 15.88 148.12 15.456 148.248 14.944C148.392 14.416 148.464 13.784 148.464 13.048V12.568C148.464 11.464 148.336 10.576 148.08 9.904C147.84 9.216 147.464 8.72 146.952 8.416C146.44 8.096 145.784 7.936 144.984 7.936ZM166.275 12.52C166.275 13.592 166.131 14.544 165.843 15.376C165.555 16.208 165.147 16.912 164.619 17.488C164.091 18.064 163.451 18.504 162.699 18.808C161.947 19.096 161.099 19.24 160.155 19.24C159.291 19.24 158.491 19.096 157.755 18.808C157.019 18.504 156.379 18.064 155.835 17.488C155.307 16.912 154.891 16.208 154.587 15.376C154.283 14.544 154.131 13.584 154.131 12.496C154.131 11.072 154.371 9.864 154.851 8.872C155.347 7.88 156.051 7.128 156.963 6.616C157.891 6.088 158.979 5.824 160.227 5.824C161.411 5.824 162.451 6.088 163.347 6.616C164.259 7.128 164.971 7.88 165.483 8.872C166.011 9.864 166.275 11.08 166.275 12.52ZM156.747 12.52C156.747 13.48 156.867 14.312 157.107 15.016C157.347 15.704 157.723 16.232 158.235 16.6C158.747 16.968 159.403 17.152 160.203 17.152C161.003 17.152 161.659 16.968 162.171 16.6C162.683 16.232 163.059 15.704 163.299 15.016C163.539 14.312 163.659 13.48 163.659 12.52C163.659 11.528 163.531 10.696 163.275 10.024C163.035 9.352 162.659 8.84 162.147 8.488C161.651 8.12 160.995 7.936 160.179 7.936C158.979 7.936 158.107 8.336 157.563 9.136C157.019 9.936 156.747 11.064 156.747 12.52Z" fill="#A1A1A1"/>
</svg>
