<svg width="129" height="126" viewBox="0 0 129 126" fill="none" xmlns="http://www.w3.org/2000/svg">
<rect x="0.410156" y="0.579102" width="127.917" height="125.136" rx="25" fill="#2CD18A"/>
<path fill-rule="evenodd" clip-rule="evenodd" d="M82.1365 67.3947C83.457 61.3524 81.9641 54.4767 77.5117 49.4883C73.0592 44.4999 66.9223 42.8274 61.5291 44.3068C60.2087 50.3491 61.7016 57.2247 66.154 62.2131C70.6064 67.2015 76.7434 68.8741 82.1365 67.3947ZM56.4085 38.5697C52.7621 47.9545 54.5045 59.4779 61.5499 67.3714C68.5953 75.2648 78.8807 77.217 87.2572 73.1317C90.9036 63.747 89.1611 52.2235 82.1157 44.3301C75.0703 36.4366 64.7849 34.4844 56.4085 38.5697Z" fill="white"/>
<path fill-rule="evenodd" clip-rule="evenodd" d="M108.252 58.3267C104.96 56.6571 100.875 56.7147 97.2904 59.0333C93.7059 61.3519 91.619 65.2865 91.2634 69.3157C94.5557 70.9853 98.6406 70.9277 102.225 68.6092C105.809 66.2906 107.896 62.3559 108.252 58.3267ZM84.8892 73.4388C90.5146 78.4565 98.6891 79.3198 105.481 74.9267C112.272 70.5336 115.692 62.1706 114.626 54.2036C109.001 49.186 100.826 48.3227 94.0348 52.7157C87.2433 57.1088 83.8234 65.4719 84.8892 73.4388Z" fill="white"/>
<path fill-rule="evenodd" clip-rule="evenodd" d="M86.1277 69.2768C87.399 70.7012 87.399 73.0107 86.1277 74.4351C81.8427 79.2358 76.7557 83.044 71.1571 85.6422C65.5585 88.2403 59.558 89.5776 53.4981 89.5776C47.4383 89.5776 41.4378 88.2403 35.8392 85.6421C30.2406 83.044 25.1536 79.2358 20.8686 74.4351C19.5972 73.0107 19.5972 70.7012 20.8686 69.2768C22.14 67.8524 24.2013 67.8524 25.4727 69.2768C29.153 73.4002 33.5223 76.671 38.3309 78.9026C43.1395 81.1341 48.2933 82.2827 53.4981 82.2827C58.7029 82.2827 63.8568 81.1341 68.6654 78.9026C73.474 76.671 77.8432 73.4002 81.5236 69.2768C82.795 67.8524 84.8563 67.8524 86.1277 69.2768Z" fill="white"/>
</svg>
