<svg width="150" height="147" viewBox="0 0 150 147" fill="none" xmlns="http://www.w3.org/2000/svg">
<path d="M5.46313 23.4199C5.46313 13.3823 13.5873 5.25684 23.5948 5.25684H126.468C136.476 5.25684 144.6 13.3823 144.6 23.42V123.187C144.6 133.224 136.476 141.35 126.468 141.35H23.5948C13.5873 141.35 5.46313 133.224 5.46313 123.187V23.4199Z" stroke="#00203F" stroke-width="10"/>
<path fill-rule="evenodd" clip-rule="evenodd" d="M95.0403 77.9118C96.513 71.1728 94.848 63.5045 89.8822 57.941C84.9165 52.3775 78.072 50.512 72.057 52.162C70.5843 58.901 72.2493 66.5693 77.2151 72.1328C82.1809 77.6963 89.0254 79.5618 95.0403 77.9118ZM66.346 45.7635C62.2792 56.2303 64.2225 69.0823 72.0802 77.8858C79.9379 86.6893 91.4091 88.8666 100.751 84.3103C104.818 73.8435 102.875 60.9915 95.0171 52.188C87.1594 43.3844 75.6882 41.2072 66.346 45.7635Z" fill="#00203F"/>
<path fill-rule="evenodd" clip-rule="evenodd" d="M124.167 67.7981C120.495 65.936 115.939 66.0002 111.941 68.5861C107.944 71.172 105.616 75.5603 105.22 80.0541C108.891 81.9161 113.447 81.8519 117.445 79.266C121.443 76.6801 123.77 72.2918 124.167 67.7981ZM98.1105 84.6525C104.384 90.2487 113.501 91.2115 121.076 86.3119C128.65 81.4124 132.465 72.0851 131.276 63.1996C125.002 57.6034 115.885 56.6406 108.311 61.5402C100.736 66.4397 96.9218 75.767 98.1105 84.6525Z" fill="#00203F"/>
<path fill-rule="evenodd" clip-rule="evenodd" d="M99.4916 80.0107C100.91 81.5994 100.91 84.1751 99.4916 85.7637C94.7126 91.1179 89.0391 95.3652 82.795 98.2629C76.5509 101.161 69.8586 102.652 63.1001 102.652C56.3415 102.652 49.6492 101.161 43.4051 98.2629C37.1611 95.3652 31.4876 91.1179 26.7086 85.7637C25.2906 84.1751 25.2906 81.5994 26.7086 80.0107C28.1265 78.4221 30.4255 78.4221 31.8435 80.0107C35.9481 84.6095 40.8211 88.2574 46.1841 90.7462C51.5471 93.2351 57.2952 94.5161 63.1001 94.5161C68.905 94.5161 74.653 93.2351 80.016 90.7462C85.379 88.2574 90.252 84.6095 94.3567 80.0107C95.7746 78.4221 98.0736 78.4221 99.4916 80.0107Z" fill="#00203F"/>
</svg>
