<svg width="129" height="126" viewBox="0 0 129 126" fill="none" xmlns="http://www.w3.org/2000/svg">
<rect x="0.745483" y="0.579102" width="127.976" height="125.194" rx="25" fill="#00203F"/>
<path fill-rule="evenodd" clip-rule="evenodd" d="M82.5099 67.4257C83.831 61.3806 82.3374 54.5017 77.8829 49.511C73.4284 44.5203 67.2886 42.847 61.8929 44.327C60.5718 50.3722 62.0654 57.251 66.5199 62.2417C70.9744 67.2324 77.1142 68.9058 82.5099 67.4257ZM56.7699 38.5873C53.1218 47.9765 54.865 59.5052 61.9137 67.4024C68.9624 75.2995 79.2526 77.2526 87.6329 73.1654C91.281 63.7763 89.5378 52.2475 82.4891 44.3504C75.4404 36.4532 65.1502 34.5001 56.7699 38.5873Z" fill="#2CD18A"/>
<path fill-rule="evenodd" clip-rule="evenodd" d="M108.638 58.3528C105.344 56.6824 101.257 56.74 97.6709 59.0597C94.0847 61.3793 91.9968 65.3158 91.6411 69.3469C94.9349 71.0173 99.0217 70.9597 102.608 68.64C106.194 66.3203 108.282 62.3839 108.638 58.3528ZM85.2639 73.4719C90.892 78.4919 99.0702 79.3556 105.865 74.9605C112.66 70.5654 116.081 62.1984 115.015 54.2277C109.387 49.2077 101.208 48.3441 94.4138 52.7392C87.6191 57.1343 84.1976 65.5012 85.2639 73.4719Z" fill="#2CD18A"/>
<path fill-rule="evenodd" clip-rule="evenodd" d="M86.5028 69.3088C87.7748 70.7339 87.7748 73.0444 86.5028 74.4695C82.2158 79.2725 77.1265 83.0824 71.5253 85.6818C65.9241 88.2811 59.9208 89.619 53.8581 89.619C47.7954 89.619 41.7921 88.2811 36.1909 85.6818C30.5897 83.0824 25.5003 79.2725 21.2134 74.4695C19.9414 73.0444 19.9414 70.7339 21.2134 69.3088C22.4853 67.8838 24.5476 67.8838 25.8196 69.3088C29.5017 73.4341 33.8729 76.7065 38.6838 78.939C43.4946 81.1716 48.6509 82.3207 53.8581 82.3207C59.0653 82.3207 64.2216 81.1716 69.0324 78.939C73.8433 76.7065 78.2145 73.4341 81.8966 69.3088C83.1686 67.8838 85.2308 67.8838 86.5028 69.3088Z" fill="#2CD18A"/>
</svg>
