<svg width="138" height="25" viewBox="0 0 138 25" fill="none" xmlns="http://www.w3.org/2000/svg">
<path d="M11.12 14.368C11.12 15.392 10.872 16.264 10.376 16.984C9.88 17.704 9.168 18.264 8.24 18.664C7.312 19.048 6.208 19.24 4.928 19.24C4.304 19.24 3.704 19.2 3.128 19.12C2.552 19.056 2.016 18.96 1.52 18.832C1.024 18.704 0.584 18.544 0.2 18.352V15.904C0.84 16.192 1.592 16.456 2.456 16.696C3.32 16.92 4.2 17.032 5.096 17.032C5.864 17.032 6.504 16.928 7.016 16.72C7.528 16.512 7.912 16.224 8.168 15.856C8.424 15.488 8.552 15.056 8.552 14.56C8.552 14.032 8.416 13.592 8.144 13.24C7.888 12.872 7.48 12.536 6.92 12.232C6.376 11.912 5.64 11.576 4.712 11.224C4.072 10.984 3.488 10.72 2.96 10.432C2.448 10.128 1.992 9.776 1.592 9.376C1.208 8.976 0.912 8.512 0.704 7.984C0.496 7.456 0.392 6.84 0.392 6.136C0.392 5.192 0.624 4.384 1.088 3.712C1.568 3.04 2.224 2.528 3.056 2.176C3.888 1.808 4.856 1.624 5.96 1.624C6.888 1.624 7.744 1.72 8.528 1.912C9.328 2.088 10.088 2.336 10.808 2.656L9.992 4.792C9.336 4.52 8.672 4.296 8 4.12C7.328 3.944 6.624 3.856 5.888 3.856C5.248 3.856 4.712 3.952 4.28 4.144C3.848 4.336 3.52 4.6 3.296 4.936C3.088 5.272 2.984 5.664 2.984 6.112C2.984 6.64 3.104 7.08 3.344 7.432C3.584 7.784 3.968 8.112 4.496 8.416C5.024 8.704 5.72 9.024 6.584 9.376C7.544 9.744 8.36 10.144 9.032 10.576C9.72 11.008 10.24 11.528 10.592 12.136C10.944 12.728 11.12 13.472 11.12 14.368ZM25.3233 6.064V19H23.2833L22.9233 17.296H22.8033C22.5313 17.744 22.1793 18.112 21.7473 18.4C21.3153 18.688 20.8433 18.896 20.3313 19.024C19.8193 19.168 19.2913 19.24 18.7473 19.24C17.7393 19.24 16.8833 19.08 16.1793 18.76C15.4913 18.424 14.9633 17.912 14.5953 17.224C14.2433 16.52 14.0673 15.624 14.0673 14.536V6.064H16.6353V14.152C16.6353 15.16 16.8433 15.912 17.2593 16.408C17.6913 16.904 18.3553 17.152 19.2513 17.152C20.1473 17.152 20.8513 16.976 21.3633 16.624C21.8753 16.272 22.2353 15.76 22.4433 15.088C22.6673 14.4 22.7793 13.576 22.7793 12.616V6.064H25.3233ZM35.6885 5.824C35.9125 5.824 36.1605 5.84 36.4325 5.872C36.7045 5.888 36.9285 5.912 37.1045 5.944L36.8405 8.32C36.6645 8.272 36.4565 8.232 36.2165 8.2C35.9765 8.168 35.7525 8.152 35.5445 8.152C35.0645 8.152 34.6005 8.248 34.1525 8.44C33.7205 8.616 33.3285 8.88 32.9765 9.232C32.6245 9.568 32.3445 9.984 32.1365 10.48C31.9445 10.976 31.8485 11.544 31.8485 12.184V19H29.3045V6.064H31.3205L31.6565 8.368H31.7525C32.0245 7.904 32.3525 7.48 32.7365 7.096C33.1205 6.712 33.5605 6.408 34.0565 6.184C34.5525 5.944 35.0965 5.824 35.6885 5.824ZM42.4038 19L37.5078 6.064H40.1958L42.8838 13.624C42.9958 13.944 43.1078 14.304 43.2198 14.704C43.3478 15.104 43.4598 15.488 43.5558 15.856C43.6518 16.224 43.7158 16.544 43.7478 16.816H43.8438C43.8918 16.544 43.9638 16.224 44.0598 15.856C44.1718 15.472 44.2918 15.088 44.4198 14.704C44.5478 14.304 44.6598 13.944 44.7558 13.624L47.4438 6.064H50.1318L45.2118 19H42.4038ZM54.6766 6.064V19H52.1326V6.064H54.6766ZM53.4286 1.144C53.8126 1.144 54.1486 1.256 54.4366 1.48C54.7246 1.704 54.8686 2.08 54.8686 2.608C54.8686 3.12 54.7246 3.496 54.4366 3.736C54.1486 3.96 53.8126 4.072 53.4286 4.072C53.0126 4.072 52.6606 3.96 52.3726 3.736C52.1006 3.496 51.9646 3.12 51.9646 2.608C51.9646 2.08 52.1006 1.704 52.3726 1.48C52.6606 1.256 53.0126 1.144 53.4286 1.144ZM63.8797 19.24C62.6957 19.24 61.6557 19.008 60.7597 18.544C59.8637 18.08 59.1677 17.36 58.6717 16.384C58.1757 15.392 57.9277 14.136 57.9277 12.616C57.9277 11.016 58.1917 9.72 58.7197 8.728C59.2637 7.736 59.9917 7.008 60.9037 6.544C61.8317 6.064 62.8877 5.824 64.0717 5.824C64.7917 5.824 65.4637 5.904 66.0877 6.064C66.7277 6.208 67.2557 6.376 67.6717 6.568L66.9037 8.632C66.4557 8.456 65.9757 8.304 65.4637 8.176C64.9677 8.048 64.4957 7.984 64.0477 7.984C63.2477 7.984 62.5837 8.16 62.0557 8.512C61.5437 8.848 61.1597 9.36 60.9037 10.048C60.6637 10.72 60.5437 11.568 60.5437 12.592C60.5437 13.568 60.6717 14.392 60.9277 15.064C61.1837 15.736 61.5597 16.248 62.0557 16.6C62.5677 16.936 63.1997 17.104 63.9517 17.104C64.6717 17.104 65.3037 17.024 65.8477 16.864C66.3917 16.704 66.9037 16.496 67.3837 16.24V18.448C66.9197 18.72 66.4157 18.92 65.8717 19.048C65.3277 19.176 64.6637 19.24 63.8797 19.24ZM75.5253 5.824C76.6613 5.824 77.6373 6.064 78.4533 6.544C79.2693 7.008 79.8933 7.68 80.3253 8.56C80.7733 9.44 80.9973 10.48 80.9973 11.68V13.072H72.3093C72.3413 14.4 72.6853 15.416 73.3413 16.12C74.0133 16.824 74.9493 17.176 76.1493 17.176C76.9813 17.176 77.7173 17.104 78.3573 16.96C79.0133 16.8 79.6853 16.568 80.3733 16.264V18.376C79.7333 18.664 79.0773 18.88 78.4053 19.024C77.7493 19.168 76.9653 19.24 76.0533 19.24C74.8053 19.24 73.7013 18.992 72.7413 18.496C71.7813 18 71.0293 17.264 70.4853 16.288C69.9573 15.296 69.6933 14.08 69.6933 12.64C69.6933 11.184 69.9333 9.952 70.4133 8.944C70.9093 7.936 71.5893 7.168 72.4533 6.64C73.3333 6.096 74.3573 5.824 75.5253 5.824ZM75.5253 7.792C74.6133 7.792 73.8773 8.088 73.3173 8.68C72.7733 9.272 72.4533 10.112 72.3573 11.2H78.4533C78.4533 10.528 78.3493 9.936 78.1413 9.424C77.9333 8.912 77.6133 8.512 77.1813 8.224C76.7493 7.936 76.1973 7.792 75.5253 7.792ZM92.9501 19H90.4061V0.759999H92.9501V19ZM108.345 12.52C108.345 13.592 108.201 14.544 107.913 15.376C107.625 16.208 107.217 16.912 106.689 17.488C106.161 18.064 105.521 18.504 104.769 18.808C104.017 19.096 103.169 19.24 102.225 19.24C101.361 19.24 100.561 19.096 99.8251 18.808C99.0891 18.504 98.4491 18.064 97.9051 17.488C97.3771 16.912 96.9611 16.208 96.6571 15.376C96.3531 14.544 96.2011 13.584 96.2011 12.496C96.2011 11.072 96.4411 9.864 96.9211 8.872C97.4171 7.88 98.1211 7.128 99.0331 6.616C99.9611 6.088 101.049 5.824 102.297 5.824C103.481 5.824 104.521 6.088 105.417 6.616C106.329 7.128 107.041 7.88 107.553 8.872C108.081 9.864 108.345 11.08 108.345 12.52ZM98.8171 12.52C98.8171 13.48 98.9371 14.312 99.1771 15.016C99.4171 15.704 99.7931 16.232 100.305 16.6C100.817 16.968 101.473 17.152 102.273 17.152C103.073 17.152 103.729 16.968 104.241 16.6C104.753 16.232 105.129 15.704 105.369 15.016C105.609 14.312 105.729 13.48 105.729 12.52C105.729 11.528 105.601 10.696 105.345 10.024C105.105 9.352 104.729 8.84 104.217 8.488C103.721 8.12 103.065 7.936 102.249 7.936C101.049 7.936 100.177 8.336 99.6331 9.136C99.0891 9.936 98.8171 11.064 98.8171 12.52ZM116.034 5.824C116.866 5.824 117.618 5.984 118.29 6.304C118.962 6.624 119.53 7.112 119.994 7.768H120.114L120.402 6.064H122.466V19.168C122.466 20.384 122.25 21.408 121.818 22.24C121.386 23.072 120.722 23.696 119.826 24.112C118.946 24.544 117.834 24.76 116.49 24.76C115.562 24.76 114.706 24.696 113.922 24.568C113.138 24.44 112.418 24.24 111.762 23.968V21.736C112.226 21.96 112.714 22.144 113.226 22.288C113.738 22.448 114.282 22.56 114.858 22.624C115.434 22.704 116.026 22.744 116.634 22.744C117.69 22.744 118.506 22.44 119.082 21.832C119.658 21.24 119.946 20.4 119.946 19.312V18.88C119.946 18.672 119.954 18.4 119.97 18.064C119.986 17.712 120.002 17.456 120.018 17.296H119.922C119.474 17.968 118.922 18.464 118.266 18.784C117.626 19.088 116.882 19.24 116.034 19.24C114.402 19.24 113.122 18.656 112.194 17.488C111.282 16.304 110.826 14.664 110.826 12.568C110.826 11.16 111.034 9.96 111.45 8.968C111.866 7.96 112.458 7.184 113.226 6.64C114.01 6.096 114.946 5.824 116.034 5.824ZM116.562 7.936C115.89 7.936 115.322 8.12 114.858 8.488C114.394 8.84 114.042 9.36 113.802 10.048C113.562 10.736 113.442 11.584 113.442 12.592C113.442 14.096 113.706 15.24 114.234 16.024C114.778 16.808 115.57 17.2 116.61 17.2C117.218 17.2 117.73 17.12 118.146 16.96C118.578 16.8 118.93 16.552 119.202 16.216C119.49 15.88 119.698 15.456 119.826 14.944C119.97 14.416 120.042 13.784 120.042 13.048V12.568C120.042 11.464 119.914 10.576 119.658 9.904C119.418 9.216 119.042 8.72 118.53 8.416C118.018 8.096 117.362 7.936 116.562 7.936ZM137.853 12.52C137.853 13.592 137.709 14.544 137.421 15.376C137.133 16.208 136.725 16.912 136.197 17.488C135.669 18.064 135.029 18.504 134.277 18.808C133.525 19.096 132.677 19.24 131.733 19.24C130.869 19.24 130.069 19.096 129.333 18.808C128.597 18.504 127.957 18.064 127.413 17.488C126.885 16.912 126.469 16.208 126.165 15.376C125.861 14.544 125.709 13.584 125.709 12.496C125.709 11.072 125.949 9.864 126.429 8.872C126.925 7.88 127.629 7.128 128.541 6.616C129.469 6.088 130.557 5.824 131.805 5.824C132.989 5.824 134.029 6.088 134.925 6.616C135.837 7.128 136.549 7.88 137.061 8.872C137.589 9.864 137.853 11.08 137.853 12.52ZM128.325 12.52C128.325 13.48 128.445 14.312 128.685 15.016C128.925 15.704 129.301 16.232 129.813 16.6C130.325 16.968 130.981 17.152 131.781 17.152C132.581 17.152 133.237 16.968 133.749 16.6C134.261 16.232 134.637 15.704 134.877 15.016C135.117 14.312 135.237 13.48 135.237 12.52C135.237 11.528 135.109 10.696 134.853 10.024C134.613 9.352 134.237 8.84 133.725 8.488C133.229 8.12 132.573 7.936 131.757 7.936C130.557 7.936 129.685 8.336 129.141 9.136C128.597 9.936 128.325 11.064 128.325 12.52Z" fill="#A1A1A1"/>
</svg>
