<svg id="visual" viewBox="0 0 1700 750" width="1700" height="750" xmlns="http://www.w3.org/2000/svg" xmlns:xlink="http://www.w3.org/1999/xlink" version="1.1"><rect x="0" y="0" width="1700" height="750" fill="#FFFFFF"></rect><path d="M0 373L31.5 374.7C63 376.3 126 379.7 189 371C252 362.3 315 341.7 378 337.3C441 333 504 345 567 346.3C630 347.7 693 338.3 755.8 334.3C818.7 330.3 881.3 331.7 944.2 339C1007 346.3 1070 359.7 1133 369.7C1196 379.7 1259 386.3 1322 387.5C1385 388.7 1448 384.3 1511 375.5C1574 366.7 1637 353.3 1668.5 346.7L1700 340L1700 751L1668.5 751C1637 751 1574 751 1511 751C1448 751 1385 751 1322 751C1259 751 1196 751 1133 751C1070 751 1007 751 944.2 751C881.3 751 818.7 751 755.8 751C693 751 630 751 567 751C504 751 441 751 378 751C315 751 252 751 189 751C126 751 63 751 31.5 751L0 751Z" fill="#ffffff"></path><path d="M0 454L31.5 444.7C63 435.3 126 416.7 189 410.2C252 403.7 315 409.3 378 419.2C441 429 504 443 567 443.7C630 444.3 693 431.7 755.8 421.3C818.7 411 881.3 403 944.2 398.5C1007 394 1070 393 1133 403.3C1196 413.7 1259 435.3 1322 439C1385 442.7 1448 428.3 1511 422.3C1574 416.3 1637 418.7 1668.5 419.8L1700 421L1700 751L1668.5 751C1637 751 1574 751 1511 751C1448 751 1385 751 1322 751C1259 751 1196 751 1133 751C1070 751 1007 751 944.2 751C881.3 751 818.7 751 755.8 751C693 751 630 751 567 751C504 751 441 751 378 751C315 751 252 751 189 751C126 751 63 751 31.5 751L0 751Z" fill="#d4f5e1"></path><path d="M0 530L31.5 530.8C63 531.7 126 533.3 189 534C252 534.7 315 534.3 378 527.8C441 521.3 504 508.7 567 497.2C630 485.7 693 475.3 755.8 475.3C818.7 475.3 881.3 485.7 944.2 494.2C1007 502.7 1070 509.3 1133 508.8C1196 508.3 1259 500.7 1322 501.7C1385 502.7 1448 512.3 1511 516.5C1574 520.7 1637 519.3 1668.5 518.7L1700 518L1700 751L1668.5 751C1637 751 1574 751 1511 751C1448 751 1385 751 1322 751C1259 751 1196 751 1133 751C1070 751 1007 751 944.2 751C881.3 751 818.7 751 755.8 751C693 751 630 751 567 751C504 751 441 751 378 751C315 751 252 751 189 751C126 751 63 751 31.5 751L0 751Z" fill="#a7eac3"></path><path d="M0 585L31.5 584.8C63 584.7 126 584.3 189 589.7C252 595 315 606 378 601.5C441 597 504 577 567 575.2C630 573.3 693 589.7 755.8 589C818.7 588.3 881.3 570.7 944.2 571.8C1007 573 1070 593 1133 592.8C1196 592.7 1259 572.3 1322 569.3C1385 566.3 1448 580.7 1511 584.8C1574 589 1637 583 1668.5 580L1700 577L1700 751L1668.5 751C1637 751 1574 751 1511 751C1448 751 1385 751 1322 751C1259 751 1196 751 1133 751C1070 751 1007 751 944.2 751C881.3 751 818.7 751 755.8 751C693 751 630 751 567 751C504 751 441 751 378 751C315 751 252 751 189 751C126 751 63 751 31.5 751L0 751Z" fill="#75dea6"></path><path d="M0 631L31.5 638C63 645 126 659 189 669C252 679 315 685 378 685.5C441 686 504 681 567 672.5C630 664 693 652 755.8 644.2C818.7 636.3 881.3 632.7 944.2 636.3C1007 640 1070 651 1133 659.2C1196 667.3 1259 672.7 1322 667.2C1385 661.7 1448 645.3 1511 638.5C1574 631.7 1637 634.3 1668.5 635.7L1700 637L1700 751L1668.5 751C1637 751 1574 751 1511 751C1448 751 1385 751 1322 751C1259 751 1196 751 1133 751C1070 751 1007 751 944.2 751C881.3 751 818.7 751 755.8 751C693 751 630 751 567 751C504 751 441 751 378 751C315 751 252 751 189 751C126 751 63 751 31.5 751L0 751Z" fill="#2cd18a"></path></svg>